<?xml version="1.0" encoding="utf-8" standalone="no"?>
<!DOCTYPE svg PUBLIC "-//W3C//DTD SVG 1.1//EN"
  "http://www.w3.org/Graphics/SVG/1.1/DTD/svg11.dtd">
<svg xmlns:xlink="http://www.w3.org/1999/xlink" width="798.12pt" height="427.104pt" viewBox="0 0 798.12 427.104" xmlns="http://www.w3.org/2000/svg" version="1.1">
 <metadata>
  <rdf:RDF xmlns:dc="http://purl.org/dc/elements/1.1/" xmlns:cc="http://creativecommons.org/ns#" xmlns:rdf="http://www.w3.org/1999/02/22-rdf-syntax-ns#">
   <cc:Work>
    <dc:type rdf:resource="http://purl.org/dc/dcmitype/StillImage"/>
    <dc:date>2026-04-23T15:00:43.071317</dc:date>
    <dc:format>image/svg+xml</dc:format>
    <dc:creator>
     <cc:Agent>
      <dc:title>Matplotlib v3.10.6, https://matplotlib.org/</dc:title>
     </cc:Agent>
    </dc:creator>
   </cc:Work>
  </rdf:RDF>
 </metadata>
 <defs>
  <style type="text/css">*{stroke-linejoin: round; stroke-linecap: butt}</style>
 </defs>
 <g id="figure_1">
  <g id="patch_1">
   <path d="M 0 427.104 
L 798.12 427.104 
L 798.12 0 
L 0 0 
z
" style="fill: #ffffff"/>
  </g>
  <g id="axes_1">
   <g id="patch_2">
    <path d="M 56.448 247.3704 
L 644.022 247.3704 
Q 657.414 247.3704 657.414 234.0648 
L 657.414 171.972 
Q 657.414 158.6664 644.022 158.6664 
L 56.448 158.6664 
Q 43.056 158.6664 43.056 171.972 
L 43.056 234.0648 
Q 43.056 247.3704 56.448 247.3704 
z
" clip-path="url(#p7b2137068f)" style="fill: #fffbf7; stroke: #f39b62; stroke-width: 1.7; stroke-linejoin: miter"/>
   </g>
   <g id="patch_3">
    <path d="M 684.198 247.3704 
L 747.252 247.3704 
Q 760.644 247.3704 760.644 234.0648 
L 760.644 171.972 
Q 760.644 158.6664 747.252 158.6664 
L 684.198 158.6664 
Q 670.806 158.6664 670.806 171.972 
L 670.806 234.0648 
Q 670.806 247.3704 684.198 247.3704 
z
" clip-path="url(#p7b2137068f)" style="fill: #fff8f1; stroke: #f39b62; stroke-width: 1.7; stroke-linejoin: miter"/>
   </g>
   <g id="patch_4">
    <path d="M 81.558 360.468 
L 610.542 360.468 
Q 623.934 360.468 623.934 347.1624 
L 623.934 291.7224 
Q 623.934 278.4168 610.542 278.4168 
L 81.558 278.4168 
Q 68.166 278.4168 68.166 291.7224 
L 68.166 347.1624 
Q 68.166 360.468 81.558 360.468 
z
" clip-path="url(#p7b2137068f)" style="fill: #f7fcf8; stroke: #69b77d; stroke-width: 1.7; stroke-linejoin: miter"/>
   </g>
   <g id="patch_5">
    <path d="M 104.994 402.048 
L 581.526 402.048 
Q 587.106 402.048 587.106 396.504 
L 587.106 382.0896 
Q 587.106 376.5456 581.526 376.5456 
L 104.994 376.5456 
Q 99.414 376.5456 99.414 382.0896 
L 99.414 396.504 
Q 99.414 402.048 104.994 402.048 
z
" clip-path="url(#p7b2137068f)" style="fill: #f8fafc; stroke: #d6e0ec; stroke-linejoin: miter"/>
   </g>
   <g id="patch_6">
    <path d="M 240.21936 53.67575 
Q 253.97853 55.27063 265.405443 56.595169 
" clip-path="url(#p7b2137068f)" style="fill: none; stroke: #4f83c8; stroke-width: 2.1; stroke-linecap: round"/>
    <path d="M 260.539401 53.413718 
L 265.405443 56.595169 
L 259.940657 58.579132 
z
" clip-path="url(#p7b2137068f)" style="fill: #4f83c8; stroke: #4f83c8; stroke-width: 2.1; stroke-linecap: round"/>
   </g>
   <g id="text_1">
    <text style="font-weight: 700; font-size: 12.3px; font-family: 'PingFang SC', 'PingFang HK', 'Heiti SC', 'STHeiti', 'Arial Unicode MS', 'DejaVu Sans'; text-anchor: start; fill: #263445" x="58.122" y="180.222061" transform="rotate(-0 58.122 180.222061)">多智能体执行层</text>
   </g>
   <g id="patch_7">
    <path d="M 181.653882 204.1272 
Q 187.02123 204.1272 190.376117 204.1272 
" clip-path="url(#p7b2137068f)" style="fill: none; stroke: #4f83c8; stroke-width: 1.8; stroke-linecap: round"/>
    <path d="M 185.376117 201.6272 
L 190.376117 204.1272 
L 185.376117 206.6272 
z
" clip-path="url(#p7b2137068f)" style="fill: #4f83c8; stroke: #4f83c8; stroke-width: 1.8; stroke-linecap: round"/>
   </g>
   <g id="patch_8">
    <path d="M 312.783882 204.1272 
Q 318.15123 204.1272 321.506117 204.1272 
" clip-path="url(#p7b2137068f)" style="fill: none; stroke: #4f83c8; stroke-width: 1.8; stroke-linecap: round"/>
    <path d="M 316.506117 201.6272 
L 321.506117 204.1272 
L 316.506117 206.6272 
z
" clip-path="url(#p7b2137068f)" style="fill: #4f83c8; stroke: #4f83c8; stroke-width: 1.8; stroke-linecap: round"/>
   </g>
   <g id="patch_9">
    <path d="M 443.913882 204.1272 
Q 449.28123 204.1272 452.636117 204.1272 
" clip-path="url(#p7b2137068f)" style="fill: none; stroke: #4f83c8; stroke-width: 1.8; stroke-linecap: round"/>
    <path d="M 447.636117 201.6272 
L 452.636117 204.1272 
L 447.636117 206.6272 
z
" clip-path="url(#p7b2137068f)" style="fill: #4f83c8; stroke: #4f83c8; stroke-width: 1.8; stroke-linecap: round"/>
   </g>
   <g id="patch_10">
    <path d="M 399.06 90.14589 
Q 399.06 123.736317 399.06 153.972643 
" clip-path="url(#p7b2137068f)" style="fill: none; stroke: #4f83c8; stroke-width: 3; stroke-linecap: round"/>
    <path d="M 401.86 148.372643 
L 399.06 153.972643 
L 396.26 148.372643 
z
" clip-path="url(#p7b2137068f)" style="fill: #4f83c8; stroke: #4f83c8; stroke-width: 3; stroke-linecap: round"/>
   </g>
   <g id="text_2">
    <text style="font-weight: 700; font-size: 10.4px; font-family: 'PingFang SC', 'PingFang HK', 'Heiti SC', 'STHeiti', 'Arial Unicode MS', 'DejaVu Sans'; text-anchor: start; fill: #263445" x="685.872" y="179.7436" transform="rotate(-0 685.872 179.7436)">恢复控制</text>
   </g>
   <g id="patch_11">
    <path d="M 561.088688 204.1272 
Q 615.283512 204.1272 667.354071 204.1272 
" clip-path="url(#p7b2137068f)" style="fill: none; stroke: #f39b62; stroke-width: 1.9; stroke-linecap: round"/>
    <path d="M 662.554071 201.7272 
L 667.354071 204.1272 
L 662.554071 206.5272 
z
" clip-path="url(#p7b2137068f)" style="fill: #f39b62; stroke: #f39b62; stroke-width: 1.9; stroke-linecap: round"/>
   </g>
   <g id="patch_12">
    <path d="M 712.352469 158.725382 
Q 617.146777 98.882133 507.391769 87.661451 
" clip-path="url(#p7b2137068f)" style="fill: none; stroke-dasharray: 9.5,7.6; stroke-dashoffset: 0; stroke: #f39b62; stroke-width: 1.9; stroke-linecap: round"/>
    <path d="M 511.92279 90.537184 
L 507.391769 87.661451 
L 512.410969 85.762074 
z
" clip-path="url(#p7b2137068f)" style="fill: #f39b62; stroke-dasharray: 9.5,7.6; stroke-dashoffset: 0; stroke: #f39b62; stroke-width: 1.9; stroke-linecap: round"/>
   </g>
   <g id="text_3">
    <text style="font-weight: 700; font-size: 12.3px; font-family: 'PingFang SC', 'PingFang HK', 'Heiti SC', 'STHeiti', 'Arial Unicode MS', 'DejaVu Sans'; text-anchor: start; fill: #263445" x="83.232" y="300.00225" transform="rotate(-0 83.232 300.00225)">共享状态与支撑资源层</text>
   </g>
   <g id="patch_13">
    <path d="M 279.501416 247.53871 
Q 259.558537 262.894727 241.210189 277.022954 
" clip-path="url(#p7b2137068f)" style="fill: none; stroke: #34764a; stroke-width: 1.8; stroke-linecap: round"/>
    <path d="M 246.477595 275.996096 
L 241.210189 277.022954 
L 243.549145 272.192915 
z
" clip-path="url(#p7b2137068f)" style="fill: #34764a; stroke: #34764a; stroke-width: 1.8; stroke-linecap: round"/>
   </g>
   <g id="patch_14">
    <path d="M 387.854022 246.91457 
Q 424.169887 262.89355 458.746051 278.107062 
" clip-path="url(#p7b2137068f)" style="fill: none; stroke: #237c72; stroke-width: 1.7; stroke-linecap: round"/>
    <path d="M 455.319111 273.977161 
L 458.746051 278.107062 
L 453.385966 278.370673 
z
" clip-path="url(#p7b2137068f)" style="fill: #237c72; stroke: #237c72; stroke-width: 1.7; stroke-linecap: round"/>
   </g>
   <g id="patch_15">
    <path d="M 342.258144 89.975819 
Q 309.742674 181.987836 288.457058 275.679225 
" clip-path="url(#p7b2137068f)" style="fill: none; stroke-dasharray: 6.75,5.4; stroke-dashoffset: 0; stroke: #69b77d; stroke-width: 1.35; stroke-linecap: round"/>
    <path d="M 291.719002 271.703081 
L 288.457058 275.679225 
L 287.23331 270.683983 
z
" clip-path="url(#p7b2137068f)" style="fill: #69b77d; stroke-dasharray: 6.75,5.4; stroke-dashoffset: 0; stroke: #69b77d; stroke-width: 1.35; stroke-linecap: round"/>
   </g>
   <g id="text_4">
    <text style="font-size: 8.7px; font-family: 'PingFang SC', 'PingFang HK', 'Heiti SC', 'STHeiti', 'Arial Unicode MS', 'DejaVu Sans'; text-anchor: middle; fill: #263445" x="343.26" y="392.0373" transform="rotate(-0 343.26 392.0373)">PlanGraph 以主控调度器协调多智能体执行，并通过共享状态与外部知识资源实现可恢复的图推理流程</text>
   </g>
   <g id="patch_16">
    <path d="M 49.752 71.6256 
L 232.218 71.6256 
Q 238.356 71.6256 238.356 65.5272 
L 238.356 41.1336 
Q 238.356 35.0352 232.218 35.0352 
L 49.752 35.0352 
Q 43.614 35.0352 43.614 41.1336 
L 43.614 65.5272 
Q 43.614 71.6256 49.752 71.6256 
z
" clip-path="url(#p7b2137068f)" style="fill: #eaf3ff; stroke: #4f83c8; stroke-width: 1.5; stroke-linejoin: miter"/>
   </g>
   <g id="patch_17">
    <path d="M 279.648 88.2576 
L 518.472 88.2576 
Q 528.516 88.2576 528.516 78.2784 
L 528.516 36.144 
Q 528.516 26.1648 518.472 26.1648 
L 279.648 26.1648 
Q 269.604 26.1648 269.604 36.144 
L 269.604 78.2784 
Q 269.604 88.2576 279.648 88.2576 
z
" clip-path="url(#p7b2137068f)" style="fill: #eaf3ff; stroke: #4f83c8; stroke-width: 2; stroke-linejoin: miter"/>
   </g>
   <g id="patch_18">
    <path d="M 69.84 222.4224 
L 173.07 222.4224 
Q 179.766 222.4224 179.766 215.7696 
L 179.766 192.4848 
Q 179.766 185.832 173.07 185.832 
L 69.84 185.832 
Q 63.144 185.832 63.144 192.4848 
L 63.144 215.7696 
Q 63.144 222.4224 69.84 222.4224 
z
" clip-path="url(#p7b2137068f)" style="fill: #fff0e4; stroke: #f39b62; stroke-width: 1.35; stroke-linejoin: miter"/>
   </g>
   <g id="patch_19">
    <path d="M 200.97 222.4224 
L 304.2 222.4224 
Q 310.896 222.4224 310.896 215.7696 
L 310.896 192.4848 
Q 310.896 185.832 304.2 185.832 
L 200.97 185.832 
Q 194.274 185.832 194.274 192.4848 
L 194.274 215.7696 
Q 194.274 222.4224 200.97 222.4224 
z
" clip-path="url(#p7b2137068f)" style="fill: #fff0e4; stroke: #f39b62; stroke-width: 1.35; stroke-linejoin: miter"/>
   </g>
   <g id="patch_20">
    <path d="M 332.1 222.4224 
L 435.33 222.4224 
Q 442.026 222.4224 442.026 215.7696 
L 442.026 192.4848 
Q 442.026 185.832 435.33 185.832 
L 332.1 185.832 
Q 325.404 185.832 325.404 192.4848 
L 325.404 215.7696 
Q 325.404 222.4224 332.1 222.4224 
z
" clip-path="url(#p7b2137068f)" style="fill: #fff0e4; stroke: #f39b62; stroke-width: 1.35; stroke-linejoin: miter"/>
   </g>
   <g id="patch_21">
    <path d="M 463.23 222.4224 
L 566.46 222.4224 
Q 573.156 222.4224 573.156 215.7696 
L 573.156 192.4848 
Q 573.156 185.832 566.46 185.832 
L 463.23 185.832 
Q 456.534 185.832 456.534 192.4848 
L 456.534 215.7696 
Q 456.534 222.4224 463.23 222.4224 
z
" clip-path="url(#p7b2137068f)" style="fill: #fff0e4; stroke: #f39b62; stroke-width: 1.35; stroke-linejoin: miter"/>
   </g>
   <g id="text_5">
    <text style="font-size: 8.2px; font-family: 'PingFang SC', 'PingFang HK', 'Heiti SC', 'STHeiti', 'Arial Unicode MS', 'DejaVu Sans'; text-anchor: start; fill: #2f5f9f" x="410.22" y="134.783241" transform="rotate(-0 410.22 134.783241)">调度指令</text>
   </g>
   <g id="patch_22">
    <path d="M 685.872 207.4536 
L 745.02 207.4536 
Q 749.484 207.4536 749.484 203.0184 
L 749.484 191.376 
Q 749.484 186.9408 745.02 186.9408 
L 685.872 186.9408 
Q 681.408 186.9408 681.408 191.376 
L 681.408 203.0184 
Q 681.408 207.4536 685.872 207.4536 
z
" clip-path="url(#p7b2137068f)" style="fill: #fff0e4; stroke: #f39b62; stroke-width: 1.15; stroke-linejoin: miter"/>
   </g>
   <g id="patch_23">
    <path d="M 685.872 232.4016 
L 745.02 232.4016 
Q 749.484 232.4016 749.484 227.9664 
L 749.484 216.324 
Q 749.484 211.8888 745.02 211.8888 
L 685.872 211.8888 
Q 681.408 211.8888 681.408 216.324 
L 681.408 227.9664 
Q 681.408 232.4016 685.872 232.4016 
z
" clip-path="url(#p7b2137068f)" style="fill: #fff0e4; stroke: #f39b62; stroke-width: 1.15; stroke-linejoin: miter"/>
   </g>
   <g id="text_6">
    <text style="font-size: 7.7px; font-family: 'PingFang SC', 'PingFang HK', 'Heiti SC', 'STHeiti', 'Arial Unicode MS', 'DejaVu Sans'; fill: #b96a33" transform="translate(650.682848 137.954664) rotate(-17)">失败反馈</text>
   </g>
   <g id="patch_24">
    <path d="M 100.53 336.6288 
L 332.1 336.6288 
Q 338.796 336.6288 338.796 329.976 
L 338.796 306.6912 
Q 338.796 300.0384 332.1 300.0384 
L 100.53 300.0384 
Q 93.834 300.0384 93.834 306.6912 
L 93.834 329.976 
Q 93.834 336.6288 100.53 336.6288 
z
" clip-path="url(#p7b2137068f)" style="fill: #edf8f0; stroke: #69b77d; stroke-width: 1.35; stroke-linejoin: miter"/>
   </g>
   <g id="patch_25">
    <path d="M 362.79 336.6288 
L 572.04 336.6288 
Q 578.736 336.6288 578.736 329.976 
L 578.736 306.6912 
Q 578.736 300.0384 572.04 300.0384 
L 362.79 300.0384 
Q 356.094 300.0384 356.094 306.6912 
L 356.094 329.976 
Q 356.094 336.6288 362.79 336.6288 
z
" clip-path="url(#p7b2137068f)" style="fill: #e9f7f4; stroke: #4bae9f; stroke-width: 1.35; stroke-linejoin: miter"/>
   </g>
   <g id="text_7">
    <text style="font-weight: 700; font-size: 10px; font-family: 'PingFang SC', 'PingFang HK', 'Heiti SC', 'STHeiti', 'Arial Unicode MS', 'DejaVu Sans'; text-anchor: middle; fill: #263445" x="140.985" y="51.168208" transform="rotate(-0 140.985 51.168208)">输入与任务建模</text>
   </g>
   <g id="text_8">
    <text style="font-size: 7px; font-family: 'PingFang SC', 'PingFang HK', 'Heiti SC', 'STHeiti', 'Arial Unicode MS', 'DejaVu Sans'; text-anchor: middle; fill: #687789" x="140.985" y="61.039167" transform="rotate(-0 140.985 61.039167)">问题、图数据与约束条件</text>
   </g>
   <g id="text_9">
    <text style="font-weight: 700; font-size: 13.2px; font-family: 'PingFang SC', 'PingFang HK', 'Heiti SC', 'STHeiti', 'Arial Unicode MS', 'DejaVu Sans'; text-anchor: middle; fill: #263445" x="399.06" y="52.366891" transform="rotate(-0 399.06 52.366891)">主控调度器</text>
   </g>
   <g id="text_10">
    <text style="font-size: 8.7px; font-family: 'PingFang SC', 'PingFang HK', 'Heiti SC', 'STHeiti', 'Arial Unicode MS', 'DejaVu Sans'; text-anchor: middle; fill: #687789" x="399.06" y="70.017656" transform="rotate(-0 399.06 70.017656)">阶段推进  |  事件路由  |  预算控制  |  恢复决策</text>
   </g>
   <g id="text_11">
    <text style="font-weight: 700; font-size: 9.1px; font-family: 'PingFang SC', 'PingFang HK', 'Heiti SC', 'STHeiti', 'Arial Unicode MS', 'DejaVu Sans'; text-anchor: middle; fill: #263445" x="121.455" y="201.740016" transform="rotate(-0 121.455 201.740016)">理解与规划</text>
   </g>
   <g id="text_12">
    <text style="font-size: 6.6px; font-family: 'PingFang SC', 'PingFang HK', 'Heiti SC', 'STHeiti', 'Arial Unicode MS', 'DejaVu Sans'; text-anchor: middle; fill: #687789" x="121.455" y="211.742779" transform="rotate(-0 121.455 211.742779)">问题解析 + 规划生成</text>
   </g>
   <g id="text_13">
    <text style="font-weight: 700; font-size: 9.1px; font-family: 'PingFang SC', 'PingFang HK', 'Heiti SC', 'STHeiti', 'Arial Unicode MS', 'DejaVu Sans'; text-anchor: middle; fill: #263445" x="252.585" y="201.726508" transform="rotate(-0 252.585 201.726508)">知识与工具调用</text>
   </g>
   <g id="text_14">
    <text style="font-size: 6.6px; font-family: 'PingFang SC', 'PingFang HK', 'Heiti SC', 'STHeiti', 'Arial Unicode MS', 'DejaVu Sans'; text-anchor: middle; fill: #687789" x="252.585" y="211.726279" transform="rotate(-0 252.585 211.726279)">图谱检索 + 外部知识 + 程序生成</text>
   </g>
   <g id="text_15">
    <text style="font-weight: 700; font-size: 9.1px; font-family: 'PingFang SC', 'PingFang HK', 'Heiti SC', 'STHeiti', 'Arial Unicode MS', 'DejaVu Sans'; text-anchor: middle; fill: #263445" x="383.715" y="201.726508" transform="rotate(-0 383.715 201.726508)">执行与验证</text>
   </g>
   <g id="text_16">
    <text style="font-size: 6.6px; font-family: 'PingFang SC', 'PingFang HK', 'Heiti SC', 'STHeiti', 'Arial Unicode MS', 'DejaVu Sans'; text-anchor: middle; fill: #687789" x="383.715" y="211.736592" transform="rotate(-0 383.715 211.736592)">运行结果校验与一致性检查</text>
   </g>
   <g id="text_17">
    <text style="font-weight: 700; font-size: 9.1px; font-family: 'PingFang SC', 'PingFang HK', 'Heiti SC', 'STHeiti', 'Arial Unicode MS', 'DejaVu Sans'; text-anchor: middle; fill: #263445" x="514.845" y="201.726508" transform="rotate(-0 514.845 201.726508)">结果输出</text>
   </g>
   <g id="text_18">
    <text style="font-size: 6.6px; font-family: 'PingFang SC', 'PingFang HK', 'Heiti SC', 'STHeiti', 'Arial Unicode MS', 'DejaVu Sans'; text-anchor: middle; fill: #687789" x="514.845" y="211.726279" transform="rotate(-0 514.845 211.726279)">答案组织与结果返回</text>
   </g>
   <g id="text_19">
    <text style="font-weight: 700; font-size: 7.8px; font-family: 'PingFang SC', 'PingFang HK', 'Heiti SC', 'STHeiti', 'Arial Unicode MS', 'DejaVu Sans'; text-anchor: middle; fill: #263445" x="715.446" y="199.2642" transform="rotate(-0 715.446 199.2642)">错误路由</text>
   </g>
   <g id="text_20">
    <text style="font-weight: 700; font-size: 7.8px; font-family: 'PingFang SC', 'PingFang HK', 'Heiti SC', 'STHeiti', 'Arial Unicode MS', 'DejaVu Sans'; text-anchor: middle; fill: #263445" x="715.446" y="224.223778" transform="rotate(-0 715.446 224.223778)">恢复动作</text>
   </g>
   <g id="text_21">
    <text style="font-weight: 700; font-size: 9.3px; font-family: 'PingFang SC', 'PingFang HK', 'Heiti SC', 'STHeiti', 'Arial Unicode MS', 'DejaVu Sans'; text-anchor: middle; fill: #263445" x="216.315" y="315.985908" transform="rotate(-0 216.315 315.985908)">共享状态层</text>
   </g>
   <g id="text_22">
    <text style="font-size: 6.6px; font-family: 'PingFang SC', 'PingFang HK', 'Heiti SC', 'STHeiti', 'Arial Unicode MS', 'DejaVu Sans'; text-anchor: middle; fill: #687789" x="216.315" y="325.935773" transform="rotate(-0 216.315 325.935773)">黑板事件 · 工件存储 · 缓存复用 · 日志追踪</text>
   </g>
   <g id="text_23">
    <text style="font-weight: 700; font-size: 9.1px; font-family: 'PingFang SC', 'PingFang HK', 'Heiti SC', 'STHeiti', 'Arial Unicode MS', 'DejaVu Sans'; text-anchor: middle; fill: #263445" x="467.415" y="315.937885" transform="rotate(-0 467.415 315.937885)">外部知识与工具资源</text>
   </g>
   <g id="text_24">
    <text style="font-size: 6.6px; font-family: 'PingFang SC', 'PingFang HK', 'Heiti SC', 'STHeiti', 'Arial Unicode MS', 'DejaVu Sans'; text-anchor: middle; fill: #687789" x="467.415" y="325.946085" transform="rotate(-0 467.415 325.946085)">知识图谱 · 算法接口 · 实现片段</text>
   </g>
   <g id="text_25">
    <g id="patch_26">
     <path d="M 238.38 268.8774 
L 269.58 268.8774 
Q 270.828 268.8774 270.828 267.6294 
L 270.828 260.3754 
Q 270.828 259.1274 269.58 259.1274 
L 238.38 259.1274 
Q 237.132 259.1274 237.132 260.3754 
L 237.132 267.6294 
Q 237.132 268.8774 238.38 268.8774 
z
" style="fill: #ffffff; opacity: 0.92"/>
    </g>
    <text style="font-size: 7.8px; font-family: 'PingFang SC', 'PingFang HK', 'Heiti SC', 'STHeiti', 'Arial Unicode MS', 'DejaVu Sans'; text-anchor: middle; fill: #34764a" x="253.98" y="266.085244" transform="rotate(-0 253.98 266.085244)">读写状态</text>
   </g>
   <g id="text_26">
    <g id="patch_27">
     <path d="M 414.15 268.861556 
L 445.35 268.861556 
Q 446.598 268.861556 446.598 267.613556 
L 446.598 260.391244 
Q 446.598 259.143244 445.35 259.143244 
L 414.15 259.143244 
Q 412.902 259.143244 412.902 260.391244 
L 412.902 267.613556 
Q 412.902 268.861556 414.15 268.861556 
z
" style="fill: #ffffff; opacity: 0.92"/>
    </g>
    <text style="font-size: 7.8px; font-family: 'PingFang SC', 'PingFang HK', 'Heiti SC', 'STHeiti', 'Arial Unicode MS', 'DejaVu Sans'; text-anchor: middle; fill: #237c72" x="429.75" y="266.0694" transform="rotate(-0 429.75 266.0694)">调用资源</text>
   </g>
  </g>
 </g>
 <defs>
  <clipPath id="p7b2137068f">
   <rect x="2.88" y="2.88" width="792.36" height="421.344"/>
  </clipPath>
 </defs>
</svg>
